<?xml version="1.0" encoding="UTF-8" standalone="no"?>
<!DOCTYPE svg PUBLIC "-//W3C//DTD SVG 1.1//EN"
 "http://www.w3.org/Graphics/SVG/1.1/DTD/svg11.dtd">
<!-- Generated by graphviz version 2.40.1 (20161225.0304)
 -->
<!-- Title: G Pages: 1 -->
<svg width="500pt" height="432pt"
 viewBox="0.00 0.00 499.50 432.00" xmlns="http://www.w3.org/2000/svg" xmlns:xlink="http://www.w3.org/1999/xlink">
<g id="graph0" class="graph" transform="scale(1 1) rotate(0) translate(4 428)">
<title>G</title>
<polygon fill="#ffffff" stroke="transparent" points="-4,4 -4,-428 495.5,-428 495.5,4 -4,4"/>
<!-- A0 -->
<g id="node1" class="node">
<title>A0</title>
<polygon fill="none" stroke="#000000" points=".5,-392 .5,-424 205.5,-424 205.5,-392 .5,-392"/>
<text text-anchor="start" x="77.2985" y="-405" font-family="Helvetica,sans-Serif" font-size="10.00" fill="#000000">+A:MyBase</text>
<polygon fill="none" stroke="#000000" points=".5,-360 .5,-392 205.5,-392 205.5,-360 .5,-360"/>
<text text-anchor="start" x="66.3315" y="-373" font-family="Helvetica,sans-Serif" font-size="10.00" fill="#000000">&#45;password:string</text>
<polygon fill="none" stroke="#000000" points=".5,-304 .5,-360 205.5,-360 205.5,-304 .5,-304"/>
<text text-anchor="start" x="64.5215" y="-341" font-family="Helvetica,sans-Serif" font-size="10.00" fill="#000000">+Password:string</text>
<text text-anchor="start" x="10.0685" y="-329" font-family="Helvetica,sans-Serif" font-size="10.00" fill="#000000">+MyAbstractMethod(a:int,b:string):string:a</text>
<text text-anchor="start" x="37.578" y="-317" font-family="Helvetica,sans-Serif" font-size="10.00" fill="#000000"> +MyVirtualMethod(a:string):v</text>
</g>
<!-- A1 -->
<g id="node2" class="node">
<title>A1</title>
<polygon fill="none" stroke="#000000" points="17.5,-222 17.5,-254 222.5,-254 222.5,-222 17.5,-222"/>
<text text-anchor="start" x="99.1725" y="-235" font-family="Helvetica,sans-Serif" font-size="10.00" fill="#000000">&#45;MyClass</text>
<polygon fill="none" stroke="#000000" points="17.5,-190 17.5,-222 222.5,-222 222.5,-190 17.5,-190"/>
<text text-anchor="start" x="118.6105" y="-203" font-family="Helvetica,sans-Serif" font-size="10.00" fill="#000000"> </text>
<polygon fill="none" stroke="#000000" points="17.5,-158 17.5,-190 222.5,-190 222.5,-158 17.5,-158"/>
<text text-anchor="start" x="27.0685" y="-171" font-family="Helvetica,sans-Serif" font-size="10.00" fill="#000000">+MyAbstractMethod(a:int,b:string):string:o</text>
</g>
<!-- A0&#45;&gt;A1 -->
<g id="edge1" class="edge">
<title>A0&#45;&gt;A1</title>
<path fill="none" stroke="#000000" stroke-dasharray="5,2" d="M110.063,-293.7089C111.4979,-280.3728 112.9688,-266.7015 114.3096,-254.2402"/>
<polygon fill="#000000" stroke="#000000" points="108.9755,-303.8162 105.5712,-293.3922 109.5104,-298.8449 110.0453,-293.8736 110.0453,-293.8736 110.0453,-293.8736 109.5104,-298.8449 114.5195,-294.3551 108.9755,-303.8162 108.9755,-303.8162"/>
</g>
<!-- A2 -->
<g id="node3" class="node">
<title>A2</title>
<polygon fill="none" stroke="#000000" points="124.5,-76 124.5,-108 274.5,-108 274.5,-76 124.5,-76"/>
<text text-anchor="start" x="154.2265" y="-89" font-family="Helvetica,sans-Serif" font-size="10.00" fill="#000000">&#45;S:MyComplexClass</text>
<polygon fill="none" stroke="#000000" points="124.5,-44 124.5,-76 274.5,-76 274.5,-44 124.5,-44"/>
<text text-anchor="start" x="198.1105" y="-57" font-family="Helvetica,sans-Serif" font-size="10.00" fill="#000000"> </text>
<polygon fill="none" stroke="#000000" points="124.5,0 124.5,-44 274.5,-44 274.5,0 124.5,0"/>
<text text-anchor="start" x="134.3425" y="-25" font-family="Helvetica,sans-Serif" font-size="10.00" fill="#000000">+MyMethod(d:double):double</text>
<text text-anchor="start" x="135.188" y="-13" font-family="Helvetica,sans-Serif" font-size="10.00" fill="#000000">+MyVirtualMethod(a:string):o</text>
</g>
<!-- A1&#45;&gt;A2 -->
<g id="edge2" class="edge">
<title>A1&#45;&gt;A2</title>
<path fill="none" stroke="#000000" d="M149.5914,-148.8263C156.6112,-135.4886 164.0656,-121.3254 171.0134,-108.1246"/>
<polygon fill="#000000" stroke="#000000" points="144.8125,-157.9063 145.4879,-146.9612 147.1413,-153.4817 149.47,-149.0571 149.47,-149.0571 149.47,-149.0571 147.1413,-153.4817 153.4522,-151.1529 144.8125,-157.9063 144.8125,-157.9063"/>
</g>
<!-- A3 -->
<g id="node4" class="node">
<title>A3</title>
<polygon fill="none" stroke="#000000" points="223.5,-364 223.5,-396 367.5,-396 367.5,-364 223.5,-364"/>
<text text-anchor="start" x="253.682" y="-377" font-family="Helvetica,sans-Serif" font-size="10.00" fill="#000000">+IMyBaseInterface</text>
<polygon fill="none" stroke="#000000" points="223.5,-332 223.5,-364 367.5,-364 367.5,-332 223.5,-332"/>
<text text-anchor="start" x="233.262" y="-345" font-family="Helvetica,sans-Serif" font-size="10.00" fill="#000000">MyMethod(d:double):double</text>
</g>
<!-- A5 -->
<g id="node6" class="node">
<title>A5</title>
<polygon fill="none" stroke="#000000" points="256.5,-200 256.5,-232 334.5,-232 334.5,-200 256.5,-200"/>
<text text-anchor="start" x="266.3305" y="-213" font-family="Helvetica,sans-Serif" font-size="10.00" fill="#000000">&#45;IMyInterface</text>
<polygon fill="none" stroke="#000000" points="256.5,-180 256.5,-200 334.5,-200 334.5,-180 256.5,-180"/>
</g>
<!-- A3&#45;&gt;A5 -->
<g id="edge3" class="edge">
<title>A3&#45;&gt;A5</title>
<path fill="none" stroke="#000000" d="M295.5,-321.5427C295.5,-293.0173 295.5,-256.3393 295.5,-232.0448"/>
<polygon fill="none" stroke="#000000" points="292.0001,-321.645 295.5,-331.6451 299.0001,-321.6451 292.0001,-321.645"/>
</g>
<!-- A4 -->
<g id="node5" class="node">
<title>A4</title>
<polygon fill="none" stroke="#000000" points="385.5,-358 385.5,-390 491.5,-390 491.5,-358 385.5,-358"/>
<text text-anchor="start" x="395.1575" y="-371" font-family="Helvetica,sans-Serif" font-size="10.00" fill="#000000">&#45;IMyBaseInterface2</text>
<polygon fill="none" stroke="#000000" points="385.5,-338 385.5,-358 491.5,-358 491.5,-338 385.5,-338"/>
</g>
<!-- A4&#45;&gt;A5 -->
<g id="edge4" class="edge">
<title>A4&#45;&gt;A5</title>
<path fill="none" stroke="#000000" d="M408.0562,-330.3628C381.4892,-301.0091 343.4839,-259.0172 319.1486,-232.1292"/>
<polygon fill="none" stroke="#000000" points="405.5811,-332.8439 414.8865,-337.9095 410.7711,-328.1466 405.5811,-332.8439"/>
</g>
<!-- A5&#45;&gt;A2 -->
<g id="edge5" class="edge">
<title>A5&#45;&gt;A2</title>
<path fill="none" stroke="#000000" d="M273.6308,-171.3737C261.8166,-152.6679 246.9646,-129.1523 233.6628,-108.0911"/>
<polygon fill="none" stroke="#000000" points="270.6978,-173.2844 278.997,-179.8703 276.6163,-169.5464 270.6978,-173.2844"/>
</g>
</g>
</svg>
